<svg width="79" height="16" viewBox="0 0 79 16" fill="none" xmlns="http://www.w3.org/2000/svg">
<path d="M12.188 4.616C11.352 3.45 9.9 2.57 8.074 2.57C4.994 2.57 2.948 4.792 2.948 7.85C2.948 10.886 4.994 13.108 8.074 13.108C9.9 13.108 11.352 12.184 12.188 11.04L13.86 12.294C12.628 14.076 10.604 15.176 8.074 15.176C3.828 15.176 0.88 12.096 0.88 7.85C0.88 3.604 3.828 0.523999 8.074 0.523999C10.604 0.523999 12.628 1.624 13.86 3.406L12.188 4.616ZM20.421 15.198C17.363 15.198 15.229 12.954 15.229 9.94C15.229 6.882 17.363 4.682 20.421 4.682C23.457 4.682 25.569 6.882 25.569 9.94C25.569 12.954 23.457 15.198 20.421 15.198ZM20.421 13.306C22.335 13.306 23.611 11.854 23.611 9.94C23.611 8.004 22.335 6.596 20.421 6.596C18.485 6.596 17.209 8.004 17.209 9.94C17.209 11.854 18.485 13.306 20.421 13.306ZM39.4415 4.726C41.2895 4.726 43.2035 5.738 43.2035 8.774V15H41.2235V9.038C41.2235 7.102 39.9475 6.464 38.8695 6.464C37.7695 6.464 36.5375 7.102 36.5375 9.038V15H34.5575V9.038C34.5575 7.102 33.2815 6.464 32.1815 6.464C31.1035 6.464 29.8495 7.102 29.8495 9.038V15H27.8695V4.88H29.8495V6.09C30.5755 5.144 31.6755 4.726 32.7535 4.726C34.0295 4.726 35.3495 5.21 36.0315 6.508C36.8015 5.188 38.1875 4.726 39.4415 4.726ZM51.308 4.726C54.168 4.726 56.214 6.882 56.214 9.94C56.214 12.954 54.168 15.176 51.308 15.176C49.746 15.176 48.58 14.516 47.832 13.438V15H45.852V0.699999H47.832V6.442C48.58 5.386 49.746 4.726 51.308 4.726ZM51.044 13.306C53.002 13.306 54.278 11.876 54.278 9.94C54.278 7.982 53.002 6.596 51.044 6.596C49.108 6.596 47.832 7.982 47.832 9.94C47.832 11.876 49.108 13.306 51.044 13.306ZM63.3897 15.198C60.3317 15.198 58.1977 12.954 58.1977 9.94C58.1977 6.882 60.3317 4.682 63.3897 4.682C66.4257 4.682 68.5377 6.882 68.5377 9.94C68.5377 12.954 66.4257 15.198 63.3897 15.198ZM63.3897 13.306C65.3037 13.306 66.5797 11.854 66.5797 9.94C66.5797 8.004 65.3037 6.596 63.3897 6.596C61.4537 6.596 60.1777 8.004 60.1777 9.94C60.1777 11.854 61.4537 13.306 63.3897 13.306ZM70.0734 12.888L71.4594 12.008C71.7674 12.822 72.9994 13.658 74.4734 13.658C75.8374 13.658 76.5414 13.196 76.5414 12.206C76.5414 11.084 74.8914 10.82 73.9894 10.556C73.1094 10.292 70.4914 9.742 70.4914 7.608C70.4914 5.628 72.2074 4.66 74.3854 4.66C76.4754 4.66 77.9054 5.606 78.3894 6.728L77.0474 7.542C76.7394 6.882 75.6174 6.222 74.3194 6.222C73.0654 6.222 72.4054 6.728 72.4054 7.52C72.4054 8.576 73.9454 8.818 74.8474 9.082C75.7274 9.346 78.4554 9.962 78.4554 12.14C78.4554 14.186 76.9814 15.286 74.4514 15.286C72.0974 15.286 70.5794 14.208 70.0734 12.888Z" fill="#807D7E"/>
</svg>
