<svg width="39" height="38" viewBox="0 0 39 38" fill="none" xmlns="http://www.w3.org/2000/svg">
<rect x="0.991943" y="0.193848" width="37.024" height="37.024" rx="10.68" fill="#F6F6F6"/>
<path d="M19.4657 14.6696C17.2546 14.6696 15.4711 16.453 15.4711 18.6641C15.4711 20.8752 17.2546 22.6587 19.4657 22.6587C21.6768 22.6587 23.4603 20.8752 23.4603 18.6641C23.4603 16.453 21.6768 14.6696 19.4657 14.6696ZM19.4657 21.2611C18.0368 21.2611 16.8687 20.0965 16.8687 18.6641C16.8687 17.2318 18.0334 16.0671 19.4657 16.0671C20.898 16.0671 22.0627 17.2318 22.0627 18.6641C22.0627 20.0965 20.8946 21.2611 19.4657 21.2611ZM24.5554 14.5062C24.5554 15.0242 24.1382 15.4379 23.6237 15.4379C23.1057 15.4379 22.692 15.0207 22.692 14.5062C22.692 13.9916 23.1091 13.5744 23.6237 13.5744C24.1382 13.5744 24.5554 13.9916 24.5554 14.5062ZM27.2011 15.4518C27.142 14.2037 26.8569 13.0982 25.9425 12.1873C25.0317 11.2764 23.9261 10.9914 22.678 10.9288C21.3917 10.8558 17.5362 10.8558 16.2499 10.9288C15.0053 10.9879 13.8997 11.273 12.9854 12.1838C12.0711 13.0947 11.7895 14.2002 11.7269 15.4483C11.6539 16.7346 11.6539 20.5901 11.7269 21.8765C11.786 23.1246 12.0711 24.2301 12.9854 25.141C13.8997 26.0518 15.0018 26.3369 16.2499 26.3995C17.5362 26.4725 21.3917 26.4725 22.678 26.3995C23.9261 26.3404 25.0317 26.0553 25.9425 25.141C26.8534 24.2301 27.1385 23.1246 27.2011 21.8765C27.2741 20.5901 27.2741 16.7381 27.2011 15.4518ZM25.5393 23.2567C25.2681 23.9381 24.7431 24.463 24.0582 24.7377C23.0327 25.1444 20.5991 25.0506 19.4657 25.0506C18.3323 25.0506 15.8953 25.141 14.8732 24.7377C14.1918 24.4665 13.6668 23.9416 13.3921 23.2567C12.9854 22.2311 13.0793 19.7975 13.0793 18.6641C13.0793 17.5308 12.9889 15.0937 13.3921 14.0716C13.6633 13.3902 14.1883 12.8652 14.8732 12.5906C15.8988 12.1838 18.3323 12.2777 19.4657 12.2777C20.5991 12.2777 23.0361 12.1873 24.0582 12.5906C24.7396 12.8617 25.2646 13.3867 25.5393 14.0716C25.946 15.0972 25.8521 17.5308 25.8521 18.6641C25.8521 19.7975 25.946 22.2346 25.5393 23.2567Z" fill="#2A2F2F"/>
</svg>
