<svg width="77" height="20" viewBox="0 0 77 20" fill="none" xmlns="http://www.w3.org/2000/svg">
<path d="M7.59 0.699999H9.636V10.952C9.636 13.548 7.854 15.176 5.126 15.176C2.508 15.176 1.012 13.746 0.66 11.766L2.684 11.062C2.86 12.272 3.608 13.174 5.126 13.174C6.754 13.174 7.59 12.118 7.59 10.688V0.699999ZM17.1339 15.198C14.0759 15.198 11.9419 12.954 11.9419 9.94C11.9419 6.882 14.0759 4.682 17.1339 4.682C20.1699 4.682 22.2819 6.882 22.2819 9.94C22.2819 12.954 20.1699 15.198 17.1339 15.198ZM17.1339 13.306C19.0479 13.306 20.3239 11.854 20.3239 9.94C20.3239 8.004 19.0479 6.596 17.1339 6.596C15.1979 6.596 13.9219 8.004 13.9219 9.94C13.9219 11.854 15.1979 13.306 17.1339 13.306ZM32.6344 4.88H34.6144V14.252C34.6144 17.178 32.5904 19.224 29.2684 19.224C27.4864 19.224 25.9684 18.52 25.0444 17.42L26.3424 16.32C27.1564 17.2 28.2344 17.53 29.2684 17.53C30.8304 17.53 32.6344 16.606 32.6344 14.252V13.438C31.8864 14.494 30.6984 15.176 29.1364 15.176C26.2984 15.176 24.2524 12.954 24.2524 9.94C24.2524 6.926 26.2984 4.726 29.1364 4.726C30.6984 4.726 31.8864 5.386 32.6344 6.464V4.88ZM29.4004 13.306C31.3584 13.306 32.6344 11.876 32.6344 9.94C32.6344 7.982 31.3584 6.596 29.4004 6.596C27.4644 6.596 26.1884 7.982 26.1884 9.94C26.1884 11.876 27.4644 13.306 29.4004 13.306ZM45.3102 4.88H47.2902V14.252C47.2902 17.178 45.2662 19.224 41.9442 19.224C40.1622 19.224 38.6442 18.52 37.7202 17.42L39.0182 16.32C39.8322 17.2 40.9102 17.53 41.9442 17.53C43.5062 17.53 45.3102 16.606 45.3102 14.252V13.438C44.5622 14.494 43.3742 15.176 41.8122 15.176C38.9742 15.176 36.9282 12.954 36.9282 9.94C36.9282 6.926 38.9742 4.726 41.8122 4.726C43.3742 4.726 44.5622 5.386 45.3102 6.464V4.88ZM42.0762 13.306C44.0342 13.306 45.3102 11.876 45.3102 9.94C45.3102 7.982 44.0342 6.596 42.0762 6.596C40.1402 6.596 38.8642 7.982 38.8642 9.94C38.8642 11.876 40.1402 13.306 42.0762 13.306ZM54.62 4.704C57.568 4.704 59.482 6.926 59.482 9.94V10.512H51.518C51.716 12.316 52.992 13.482 54.752 13.482C56.204 13.482 57.128 12.822 57.612 12.118L58.998 13.108C58.118 14.384 56.6 15.198 54.752 15.198C51.672 15.198 49.604 12.954 49.604 9.94C49.604 6.926 51.584 4.704 54.62 4.704ZM54.62 6.288C52.882 6.288 51.76 7.454 51.518 9.214H57.634C57.392 7.52 56.314 6.288 54.62 6.288ZM63.7734 6.75C64.5654 5.364 65.9294 4.748 67.3374 4.726V6.596C65.9734 6.618 63.7734 7.212 63.7734 9.808V15H61.7934V4.88H63.7734V6.75ZM68.548 12.888L69.934 12.008C70.242 12.822 71.474 13.658 72.948 13.658C74.312 13.658 75.016 13.196 75.016 12.206C75.016 11.084 73.366 10.82 72.464 10.556C71.584 10.292 68.966 9.742 68.966 7.608C68.966 5.628 70.682 4.66 72.86 4.66C74.95 4.66 76.38 5.606 76.864 6.728L75.522 7.542C75.214 6.882 74.092 6.222 72.794 6.222C71.54 6.222 70.88 6.728 70.88 7.52C70.88 8.576 72.42 8.818 73.322 9.082C74.202 9.346 76.93 9.962 76.93 12.14C76.93 14.186 75.456 15.286 72.926 15.286C70.572 15.286 69.054 14.208 68.548 12.888Z" fill="#807D7E"/>
</svg>
