<svg width="38" height="16" viewBox="0 0 38 16" fill="none" xmlns="http://www.w3.org/2000/svg">
<path d="M13.938 0.699999V15H11.892V4.726L7.734 13.284H6.304L2.168 4.748V15H0.1V0.699999H2.234L7.03 10.226L11.804 0.699999H13.938ZM21.2645 4.704C24.2125 4.704 26.1265 6.926 26.1265 9.94V10.512H18.1625C18.3605 12.316 19.6365 13.482 21.3965 13.482C22.8485 13.482 23.7725 12.822 24.2565 12.118L25.6425 13.108C24.7625 14.384 23.2445 15.198 21.3965 15.198C18.3165 15.198 16.2485 12.954 16.2485 9.94C16.2485 6.926 18.2285 4.704 21.2645 4.704ZM21.2645 6.288C19.5265 6.288 18.4045 7.454 18.1625 9.214H24.2785C24.0365 7.52 22.9585 6.288 21.2645 6.288ZM33.5419 4.726C35.4999 4.726 37.5459 5.848 37.5459 8.774V15H35.5659V9.06C35.5659 7.19 34.2459 6.42 32.9699 6.42C31.7159 6.42 30.4179 7.19 30.4179 9.06V15H28.4379V4.88H30.4179V6.112C31.1879 5.122 32.3759 4.726 33.5419 4.726Z" fill="#807D7E"/>
</svg>
