<svg width="49" height="20" viewBox="0 0 49 20" fill="none" xmlns="http://www.w3.org/2000/svg">
<path d="M6.71 15.264C3.41 15.264 1.254 13.504 0.55 11.788L2.838 10.16C3.256 10.974 4.972 12.404 7.018 12.404C8.756 12.404 9.24 11.788 9.24 10.886C9.24 9.698 6.996 9.302 5.896 8.928C4.774 8.554 1.122 7.85 1.122 4.726C1.122 1.668 3.806 0.435999 6.71 0.435999C9.46 0.435999 11.726 1.976 12.276 3.516L10.032 4.968C9.658 4.264 8.184 3.274 6.358 3.274C5.06 3.274 4.378 3.78 4.378 4.572C4.378 5.76 6.49 6.112 7.612 6.486C8.69 6.86 12.408 7.762 12.408 10.754C12.408 13.724 10.142 15.264 6.71 15.264ZM14.3963 15V0.699999H17.1463V5.848C17.9163 5.012 18.9943 4.726 19.9843 4.726C21.8103 4.726 23.9223 5.716 23.9223 8.818V15H21.1723V9.236C21.1723 7.454 19.9183 7.036 19.1483 7.036C18.3563 7.036 17.1463 7.454 17.1463 9.236V15H14.3963ZM31.1816 15.22C28.1236 15.22 25.9676 12.954 25.9676 9.94C25.9676 6.882 28.1236 4.682 31.1816 4.682C34.2616 4.682 36.3956 6.882 36.3956 9.94C36.3956 12.954 34.2616 15.22 31.1816 15.22ZM31.1816 12.58C32.6996 12.58 33.6896 11.458 33.6896 9.94C33.6896 8.422 32.6996 7.3 31.1816 7.3C29.6856 7.3 28.6736 8.422 28.6736 9.94C28.6736 11.458 29.6856 12.58 31.1816 12.58ZM38.4373 19.048V4.88H41.1873V5.958C41.8693 5.188 42.8153 4.726 44.0913 4.726C46.8633 4.726 48.8873 6.948 48.8873 9.962C48.8873 13.02 46.8633 15.176 44.0913 15.176C42.8153 15.176 41.8693 14.714 41.1873 13.944V19.048H38.4373ZM43.6953 12.58C45.2133 12.58 46.2253 11.48 46.2253 9.962C46.2253 8.444 45.2133 7.3 43.6953 7.3C42.1773 7.3 41.1873 8.444 41.1873 9.962C41.1873 11.48 42.1773 12.58 43.6953 12.58Z" fill="#3C4242"/>
</svg>
