<svg width="73" height="16" viewBox="0 0 73 16" fill="none" xmlns="http://www.w3.org/2000/svg">
<path d="M17.996 0.699999H20.174L15.4 15H13.662L10.318 4.968L6.974 15H5.214L0.44 0.699999H2.64L6.116 11.238L9.614 0.699999H11.132L14.564 10.974L17.996 0.699999ZM25.8136 15.198C22.7556 15.198 20.6216 12.954 20.6216 9.94C20.6216 6.882 22.7556 4.682 25.8136 4.682C28.8496 4.682 30.9616 6.882 30.9616 9.94C30.9616 12.954 28.8496 15.198 25.8136 15.198ZM25.8136 13.306C27.7276 13.306 29.0036 11.854 29.0036 9.94C29.0036 8.004 27.7276 6.596 25.8136 6.596C23.8776 6.596 22.6016 8.004 22.6016 9.94C22.6016 11.854 23.8776 13.306 25.8136 13.306ZM44.8341 4.726C46.6821 4.726 48.5961 5.738 48.5961 8.774V15H46.6161V9.038C46.6161 7.102 45.3401 6.464 44.2621 6.464C43.1621 6.464 41.9301 7.102 41.9301 9.038V15H39.9501V9.038C39.9501 7.102 38.6741 6.464 37.5741 6.464C36.4961 6.464 35.2421 7.102 35.2421 9.038V15H33.2621V4.88H35.2421V6.09C35.9681 5.144 37.0681 4.726 38.1461 4.726C39.4221 4.726 40.7421 5.21 41.4241 6.508C42.1941 5.188 43.5801 4.726 44.8341 4.726ZM55.9305 4.704C58.8785 4.704 60.7925 6.926 60.7925 9.94V10.512H52.8285C53.0265 12.316 54.3025 13.482 56.0625 13.482C57.5145 13.482 58.4385 12.822 58.9225 12.118L60.3085 13.108C59.4285 14.384 57.9105 15.198 56.0625 15.198C52.9825 15.198 50.9145 12.954 50.9145 9.94C50.9145 6.926 52.8945 4.704 55.9305 4.704ZM55.9305 6.288C54.1925 6.288 53.0705 7.454 52.8285 9.214H58.9445C58.7025 7.52 57.6245 6.288 55.9305 6.288ZM68.2079 4.726C70.1659 4.726 72.2119 5.848 72.2119 8.774V15H70.2319V9.06C70.2319 7.19 68.9119 6.42 67.6359 6.42C66.3819 6.42 65.0839 7.19 65.0839 9.06V15H63.1039V4.88H65.0839V6.112C65.8539 5.122 67.0419 4.726 68.2079 4.726Z" fill="#807D7E"/>
</svg>
